<svg id="Capa_1" enable-background="new 0 0 496.06 496.06" height="512" viewBox="0 0 496.06 496.06" width="512" xmlns="http://www.w3.org/2000/svg"><g><path d="m465.78 346.25h-378.982c-37.751 0-68.355 30.603-68.355 68.355 0 37.751 30.603 68.355 68.355 68.355h378.982z" fill="#fdd79b"/><path d="m101.903 414.604c0-27.457 9.53-52.01 24.51-68.354h-39.615c-37.751 0-68.355 30.604-68.355 68.354 0 37.751 30.604 68.355 68.355 68.355h39.615c-14.98-16.345-24.51-40.897-24.51-68.355z" fill="#fccd7f"/><g><path d="m110.758 495.669h-28.211c-45.589 0-82.547-36.958-82.547-82.547 0-45.589 36.958-82.547 82.547-82.547h405.311c4.11 0 7.442 3.332 7.442 7.442v23.115c0 4.11-3.332 7.442-7.442 7.442h-404.52c-24.927 0-45.758 20.399-45.331 45.322.415 24.208 20.236 43.772 44.541 43.772h28.21 377.1c4.11 0 7.442 3.332 7.442 7.442v23.115c0 4.11-3.332 7.442-7.442 7.442h-377.1z" fill="#9cf8d2"/></g><path d="m199.367 493.27-26.407-10.929-26.407 10.929c-2.76 1.142-5.796-.886-5.796-3.874v-76.275h64.405v76.275c.001 2.988-3.035 5.017-5.795 3.874z" fill="#ee6161"/><g><path d="m218.223 420.622h-94.07c-4.142 0-7.5-3.357-7.5-7.5s3.358-7.5 7.5-7.5h94.07c4.142 0 7.5 3.357 7.5 7.5s-3.358 7.5-7.5 7.5z" fill="#fccd7f"/></g><path d="m29.708 177.207h369.078c38.234 0 69.228 30.994 69.228 69.228 0 38.234-30.994 69.228-69.228 69.228h-369.078z" fill="#fdd79b"/><path d="m29.708 177.207h84.232v138.456h-84.232z" fill="#fccd7f"/><g><path d="m384.73 330.575h28.211c45.589 0 82.547-36.958 82.547-82.547s-36.958-82.547-82.547-82.547h-405.311c-4.11 0-7.442 3.332-7.442 7.442v23.115c0 4.11 3.332 7.442 7.442 7.442h404.52c24.927 0 45.758 20.399 45.331 45.322-.415 24.208-20.236 43.772-44.541 43.772h-28.21-377.1c-4.11 0-7.442 3.332-7.442 7.442v23.115c0 4.11 3.332 7.442 7.442 7.442h377.1z" fill="#f47c7c"/></g><g fill="#ee6161"><path d="m7.63 203.48h104.908c-4.11 0-7.442-3.332-7.442-7.442v-23.115c0-4.11 3.332-7.442 7.442-7.442h-104.908c-4.11 0-7.442 3.332-7.442 7.442v23.115c0 4.11 3.332 7.442 7.442 7.442z"/><path d="m105.096 323.133v-23.115c0-4.11 3.332-7.442 7.442-7.442h-104.908c-4.11 0-7.442 3.332-7.442 7.442v23.115c0 4.11 3.332 7.442 7.442 7.442h104.908c-4.11 0-7.442-3.332-7.442-7.442z"/></g><path d="m465.78 12.368h-386.404c-37.864 0-68.559 30.695-68.559 68.559 0 37.864 30.695 68.559 68.559 68.559h386.404z" fill="#fdd79b"/><path d="m88.453 84.785c0-29.764 14.524-56.132 36.867-72.417h-45.944c-37.864 0-68.559 30.695-68.559 68.559 0 37.864 30.695 68.559 68.559 68.559h36.716c-17.032-16.302-27.639-39.262-27.639-64.701z" fill="#fccd7f"/><path d="m295.343 328.498 27.185-11.251 27.185 11.251c2.39.989 5.018-.767 5.018-3.354v-77.116h-64.405v77.116c-.001 2.586 2.627 4.343 5.017 3.354z" fill="#fdb441"/><g><path d="m371.334 255.528h-94.069c-4.143 0-7.5-3.357-7.5-7.5s3.357-7.5 7.5-7.5h94.069c4.143 0 7.5 3.357 7.5 7.5s-3.357 7.5-7.5 7.5z" fill="#fccd7f"/></g><g><g id="XMLID_1099_"><g><path d="m496.06 134.921v23.12c0 4.11-3.34 7.44-7.45 7.44h-377.1-28.21c-22.79 0-43.43-9.24-58.37-24.18-14.93-14.94-24.17-35.57-24.17-58.37 0-45.59 36.95-82.54 82.54-82.54h405.31c4.11 0 7.45 3.33 7.45 7.44v23.11c0 4.11-3.34 7.45-7.45 7.45h-404.52c-24.92 0-45.75 20.39-45.33 45.32.42 24.2 20.24 43.77 44.54 43.77h28.21 377.1c4.11 0 7.45 3.33 7.45 7.44z" fill="#fdb441"/></g></g></g><path d="m99.266 127.48h-15.966c-24.3 0-44.12-19.57-44.54-43.77-.42-24.93 20.41-45.32 45.33-45.32h17.302c10.61-17.484 27.038-31.042 46.596-38h-64.688c-45.59 0-82.54 36.95-82.54 82.54 0 22.8 9.24 43.43 24.17 58.37 14.94 14.94 35.58 24.18 58.37 24.18h28.21 27.613c-16.936-8.176-30.906-21.526-39.857-38z" fill="#fea613"/><path d="m201.875 163.806-28.158-11.654-28.158 11.654c-1.926.797-4.044-.619-4.044-2.703v-78.17h64.405v78.17c-.001 2.085-2.119 3.501-4.045 2.703z" fill="#9cf8d2"/><g><path d="m218.979 90.433h-94.07c-4.142 0-7.5-3.357-7.5-7.5s3.358-7.5 7.5-7.5h94.07c4.142 0 7.5 3.357 7.5 7.5s-3.357 7.5-7.5 7.5z" fill="#fccd7f"/></g><path d="m110.407 457.669h-27.86c-24.305 0-44.126-19.565-44.541-43.772-.427-24.923 20.404-45.322 45.331-45.322h28.382c8.121-17.511 20.735-31.079 35.76-38h-64.932c-45.589 0-82.547 36.958-82.547 82.547s36.958 82.547 82.547 82.547h28.211 31.094c-13.343-7.957-24.378-21.347-31.445-38z" fill="#6cf5c2"/></g></svg>