<svg id="Capa_1" enable-background="new 0 0 501 501" height="512" viewBox="0 0 501 501" width="512" xmlns="http://www.w3.org/2000/svg"><g><path d="m495.5 256c0 135.31-109.69 245-245 245s-245-109.69-245-245 109.69-245 245-245 245 109.69 245 245z" fill="#70bdc8"/><path d="m238.875 317.598v100c0 4.75-3.312 8.727-7.753 9.747l-9.257 72c-9.695-1.129-19.218-2.823-28.533-5.05l-9.66-67.62c-3.422-1.588-5.796-5.054-5.796-9.076v-100c0-5.523 4.477-10 10-10h41c5.522-.001 9.999 4.476 9.999 9.999z" fill="#4cacba"/><path d="m119.749 414.874 48.987 10.013-19.425 54.306c-11.492-5.219-22.511-11.299-32.972-18.158zm177.252 0-48.987 10.013 26.8 74.922c9.55-.941 18.939-2.43 28.135-4.436z" fill="#36818b"/><path d="m324.375 337.598v20c0 5.523-4.477 10-10 10h-20.402l9.397 45.974c1.106 5.411-2.384 10.694-7.795 11.8l-40.169 8.21c-5.411 1.106-10.694-2.384-11.8-7.795l-11.894-58.189h-46.673l-11.894 58.189c-1.106 5.411-6.389 8.901-11.8 7.795l-40.169-8.21c-5.411-1.106-8.901-6.389-7.795-11.8l9.397-45.974h-20.402c-5.523 0-10-4.477-10-10v-20c0-5.523 4.477-10 10-10h212c5.522 0 9.999 4.477 9.999 10z" fill="#23535a"/><path d="m434.5 157.598v110c0 11.046-8.954 20-20 20-11.046 0-20-8.954-20-20v-10h-22.25v60c0 16.569-13.432 30-30 30h-267.75c-16.569 0-30-13.431-30-30v-193.742c0-16.569 13.431-30 30-30h10.458c-6.598-9.636-10.458-21.295-10.458-33.856 0-33.137 26.863-60 60-60s60 26.863 60 60c0 12.561-3.86 24.22-10.458 33.856h40.916c-6.598-9.636-10.458-21.295-10.458-33.856 0-33.137 26.863-60 60-60s60 26.863 60 60c0 12.561-3.86 24.22-10.458 33.856h18.208c16.568 0 30 13.431 30 30v43.742h22.25v-10c0-11.046 8.954-20 20-20 11.046 0 20 8.954 20 20z" fill="#533672"/><path d="m414.5 315.196v-205.196c0-11.046 8.954-20 20-20 11.046 0 20 8.954 20 20v205.196c0 11.046-8.954 20-20 20-11.046 0-20-8.954-20-20z" fill="#754ca0"/><path d="m414.5 269.398v-159.398c0-11.046 8.954-20 20-20 11.046 0 20 8.954 20 20v159.398c0 11.046-8.954 20-20 20-11.046 0-20-8.954-20-20z" fill="#865cb2"/><path d="m342.25 347.598h-229.875c-16.569 0-30-13.431-30-30v-193.742c0-16.569 13.431-30 30-30h229.875c16.569 0 30 13.431 30 30v193.742c0 16.569-13.431 30-30 30zm-207.75-307.598c-11.046 0-20 8.954-20 20s8.954 20 20 20 20-8.954 20-20-8.954-20-20-20zm140 0c-11.046 0-20 8.954-20 20s8.954 20 20 20 20-8.954 20-20-8.954-20-20-20z" fill="#754ca0"/><path d="m284.5 165v100c0 2.761-2.239 5-5 5h-140c-2.761 0-5-2.239-5-5v-100c0-2.761 2.239-5 5-5h140c2.761 0 5 2.239 5 5z" fill="#e5554e"/><path d="m284.5 164.045v80.909c0 2.234-2.239 4.045-5 4.045h-140c-2.761 0-5-1.811-5-4.045v-80.909c0-2.234 2.239-4.045 5-4.045h140c2.761 0 5 1.811 5 4.045z" fill="#f87b67"/><path d="m194.5 231.832v-33.664c0-3.818 4.107-6.228 7.44-4.364l30.109 16.832c3.414 1.908 3.414 6.82 0 8.729l-30.109 16.832c-3.333 1.862-7.44-.547-7.44-4.365z" fill="#fff5f5"/><g fill="#533672"><path d="m164.5 160c0 5.523-4.477 10-10 10s-10-4.477-10-10 4.477-10 10-10 10 4.477 10 10zm-10 26.667c-5.523 0-10 4.477-10 10s4.477 10 10 10 10-4.477 10-10-4.477-10-10-10zm0 36.666c-5.523 0-10 4.477-10 10s4.477 10 10 10 10-4.477 10-10c0-5.522-4.477-10-10-10zm0 36.667c-5.523 0-10 4.477-10 10s4.477 10 10 10 10-4.477 10-10-4.477-10-10-10zm110-90c5.523 0 10-4.477 10-10s-4.477-10-10-10-10 4.477-10 10 4.477 10 10 10zm0 16.667c-5.523 0-10 4.477-10 10s4.477 10 10 10 10-4.477 10-10-4.477-10-10-10zm0 36.666c-5.523 0-10 4.477-10 10s4.477 10 10 10 10-4.477 10-10c0-5.522-4.477-10-10-10zm0 36.667c-5.523 0-10 4.477-10 10s4.477 10 10 10 10-4.477 10-10-4.477-10-10-10z"/><path d="m294.5 140h-170c-5.523 0-10 4.477-10 10v130c0 5.523 4.477 10 10 10h170c5.523 0 10-4.477 10-10v-130c0-5.523-4.477-10-10-10zm-10 20v110h-150v-110z"/></g></g></svg>